<svg width="300" height="300" viewBox="0 0 300 300" fill="none" xmlns="http://www.w3.org/2000/svg">
<path fill-rule="evenodd" clip-rule="evenodd" d="M130.913 285.377C129.255 286.487 127.718 287.506 125.979 288.666C124.308 289.78 122.68 291.004 120.99 291.898V224.707H179.96V257.31C179.96 258.292 176.439 259.591 174.856 260.428C174.856 254.286 174.855 248.143 174.856 242C174.857 238.579 174.975 236.113 173.365 234.137C169.719 229.66 161.478 230.618 159.157 235.09C157.908 237.495 158.413 242.514 158.413 245.97C158.413 253.624 158.413 261.279 158.413 268.934C156.68 269.851 154.937 271.157 153.253 272.279C151.521 273.434 149.704 274.795 147.923 275.738C147.923 271.505 148.247 239.154 147.682 236.572C146.39 230.661 137.565 229.787 133.808 233.272C130.544 236.299 131.48 241.077 131.48 246.536C131.48 247.856 131.507 249.201 131.491 250.517C131.471 252.126 131.189 252.478 131.186 254.181C131.172 264.865 130.913 274.654 130.913 285.377ZM115.603 221.304V297.852C115.603 298.73 116.894 299.836 118.439 299.836C119.79 299.836 129.503 292.932 130.799 292.068C132.897 290.669 135.833 289.225 136.202 287.548L136.867 257.877C136.858 250.834 137.15 244.574 137.15 237.748C138.661 236.736 138.277 236.897 140.552 236.897C142.958 236.897 142.255 239.005 142.253 241.433L142.242 279.434C142.239 280.583 142.245 281.318 142.626 282.169C144.283 285.881 148.886 281.807 150.589 280.671L160.625 273.98C162.692 272.602 164.078 272.38 164.097 268.947L164.067 239.433C164.028 236.607 164.358 236.897 167.768 236.897C168.451 236.897 168.602 237.357 169.187 237.748V261.847C169.181 265.779 169.053 267.516 172.305 267.516C173.423 267.516 178.729 264.588 180.054 263.925C181.419 263.242 182.501 262.751 183.848 262.048C185.222 261.331 185.63 260.121 185.63 258.16V223.289C185.63 220.215 184.461 219.036 181.377 219.036H119.573C118.727 219.036 117.534 219.214 116.925 219.507C116.351 219.784 115.603 220.688 115.603 221.304Z" fill="#3937DC"/>
<path fill-rule="evenodd" clip-rule="evenodd" d="M77.8971 221.588C77.8971 227.465 79.3806 231.174 83.0707 234.843C89.0542 240.792 98.5451 242.04 105.185 236.118C115.614 226.817 108.715 211.949 98.0264 211.949C85.2206 211.949 82.9518 228.169 93.0396 230.829C102.321 233.276 104.814 220.171 96.8924 220.171C95.3906 220.171 92.4546 221.933 94.0571 225.273C90.4612 224.313 92.6701 215.537 99.5977 217.745C107.991 220.42 106.212 234.346 94.3403 234.346C91.4148 234.346 87.9354 232.305 86.6793 230.667C82.8344 225.653 81.9239 220.485 85.7153 214.947C86.1518 214.309 86.8286 213.348 87.3162 212.862C89.6871 210.502 93.6493 208.547 97.1757 208.547H203.775C206.082 208.547 207.551 209.156 209.245 209.88C215.329 212.481 219.557 220.084 216.624 227.066C215.946 228.677 215.366 229.234 214.391 230.503C208.881 237.67 196.12 234.177 196.12 225.273C196.12 221.492 198.269 218.85 201.139 217.816C208.119 215.305 210.569 224.292 206.894 225.273C209.733 219.355 199.239 217.819 199.239 224.99C199.239 226.876 200.64 229.009 201.776 229.824C209.163 235.134 219.625 223.65 211.225 215.272C203.604 207.67 189.616 213.581 190.734 226.967C191.613 237.506 207.041 245.683 217.738 234.984C220.983 231.74 222.748 227.793 223.054 223.68V221.072C222.872 218.61 222.178 216.129 220.979 213.74C219.635 211.066 218.569 210.16 216.608 208.188C214.955 206.526 212.876 205.326 210.501 204.371C208.118 203.413 205.317 202.877 202.074 202.877H98.8771C95.6332 202.877 92.8329 203.413 90.4484 204.371C83.6437 207.107 77.8971 213.828 77.8971 221.588Z" fill="#3937DC"/>
<path fill-rule="evenodd" clip-rule="evenodd" d="M88.6705 182.747V181.613H212.28C212.28 184.36 210.749 184.704 207.531 187.921C205.954 189.498 203.631 192.386 202.074 192.386H98.8772C97.3179 192.386 95.0028 189.505 93.4195 187.921C92.5728 187.075 88.6705 183.738 88.6705 182.747ZM83.2838 178.778C83.2838 187.099 82.2336 184.39 89.4502 191.607C90.6057 192.763 91.5545 193.711 92.7101 194.867C93.639 195.796 95.0427 197.773 96.6084 197.773H204.342C206.018 197.773 210.185 192.923 211.501 191.607C212.656 190.45 213.605 189.502 214.761 188.346C218.329 184.779 217.667 186.303 217.667 178.778C217.667 177.376 216.516 176.226 215.115 176.226H85.8351C84.4338 176.226 83.2838 177.376 83.2838 178.778Z" fill="#3937DC"/>
<path fill-rule="evenodd" clip-rule="evenodd" d="M213.541 135.702C214.87 139.971 220.448 160.402 221.509 164.627L206.019 164.594L213.541 135.702ZM213.063 106.671C223.687 106.318 224.022 121.197 213.876 121.747C210.82 121.747 206.64 119.824 206.241 114.526C205.95 109.614 210.405 106.671 213.063 106.671ZM144.881 72.646C144.881 77.7829 151.007 78.1811 153.322 78.565C157.636 79.2792 194.531 85.2556 197.643 85.6019C194.263 86.633 158.261 99.6878 154.089 101.084C149.738 102.539 150.959 102.621 146.704 101.188C115.339 90.1283 92.0237 82.733 60.8832 72.7226C64.1743 71.5432 145.53 43.2852 150.443 43.0545C154.415 42.8718 232.401 70.2272 236.506 71.824C231.102 74.3067 213.227 79.2983 208.98 78.9783C202.619 77.8842 195.974 76.8117 189.282 75.6953C186.238 75.1853 152.195 69.2449 149.775 69.2449C146.682 69.2449 144.881 70.1634 144.881 72.646ZM50.501 72.2334C50.501 78.1444 56.4231 78.5203 64.8095 81.315L82.0987 87.0064C82.0987 90.2041 81.7268 114.972 82.3708 116.687C83.4498 119.553 89.7406 123.32 92.2903 125.233C94.3779 126.797 97.3601 128.289 99.8795 129.544L108.347 133.385C120.694 138.886 135.322 140.405 148.983 141.175L160.414 140.703C171.491 139.489 180.201 137.919 190.37 134.137C193.377 133.02 196.514 132.25 197.456 128.877C198.223 126.126 196.831 121.398 188.519 124.726C163.63 134.694 125.054 135.691 102.241 122.432L88.8077 114.119L88.3688 89.1587C96.1144 90.9639 147.464 109.574 150.215 109.574C153.766 109.574 199.809 92.6229 208.072 90.6989V99.7253C205.772 100.831 207.037 99.8219 204.041 101.85C202.589 102.833 201.759 103.738 200.736 105.111C192.978 115.485 200.594 127.407 206.84 128.863L197.404 167.022C197.404 169.508 199.411 172.356 201.916 172.356H224.487C232.229 172.356 227.729 160.713 226.947 157.587L222.187 138.544C221.561 136.043 220.024 131.174 219.972 128.863C224.614 127.779 229.575 120.67 229.08 113.601C228.775 109.258 227.178 106.176 224.654 103.66C224.595 103.6 224.509 103.514 224.45 103.459L222.443 101.769C217.918 98.5307 218.74 103.15 218.74 87.8252C218.74 86.3329 223.757 85.2644 226.381 84.3897L243.619 78.6464C246.686 77.6345 249.37 76.949 250.055 73.5773C250.724 70.2791 248.384 68.2768 245.472 67.249L219.615 58.6399C208.195 54.8357 196.693 50.9981 185.144 47.1492L150.624 35.7151C148.145 35.7151 69.5179 62.4106 60.8114 65.3098C56.7583 66.6608 50.501 67.6623 50.501 72.2334Z" fill="#3937DC"/>
<path fill-rule="evenodd" clip-rule="evenodd" d="M205.56 9.63326L206.906 13.0528C206.389 13.4734 202.249 16.0877 204.239 19.0403C210.953 25.9552 214.196 28.5424 224.104 30.8431C228.797 31.9332 229.535 35.0272 233.348 38.003C235.142 39.4027 241.371 43.1223 242.673 45.1341C251.324 58.4914 244.558 49.6254 253.922 59.7635C255.926 61.9325 255.766 63.7336 256.951 66.6823C259.186 72.2453 261.298 74.1861 263.706 78.1818C265.656 81.4178 265.66 88.7947 267.236 93.3084C270.354 102.24 268.655 98.4293 268.06 106.613C267.654 112.195 269.363 116.549 267.596 120.498C259.911 137.665 267.593 132.323 259.239 142.744C252.924 150.618 258.741 150.917 249.674 156.6C236.147 165.081 239.32 173.959 237.471 176.578C232.447 181.97 215.275 195.426 219.167 202.398C221.57 203.858 226.956 207.393 230.882 203.879C233.127 201.869 233.131 196.388 237.499 193.116C244.598 185.352 246.464 183.462 246.474 183.454C252.846 181.885 250.909 181.042 257.711 181.604C261.951 181.954 266.872 180.251 270.447 178.521C274.959 176.337 280.053 172.777 281.969 167.978C283.42 164.341 282.077 165.407 281.171 163.145C285.777 159.832 290.639 154.759 292.065 148.918C292.819 145.825 291.966 145.493 290.75 143.077C293.439 141.062 299.308 130.746 297.511 124.9C296.804 122.6 295.932 123.127 296.561 120.78C297.365 117.78 301.344 110.463 298.773 103.938C297.628 101.028 297.071 101.672 296.927 101.976C296.873 102.089 296.877 102.156 296.927 101.976C297.047 101.55 297.437 99.7301 297.973 93.8335C298.935 83.2429 294.891 81.7546 293.954 79.2512C293.201 77.2378 294.663 69.4946 290.828 63.2357C290.421 62.5717 289.748 61.6875 289.117 61.2286C288.987 61.1337 288.811 61.0323 288.671 60.9469L286.523 60.0108C285.865 55.4892 285.087 51.1783 283.136 47.3558C279.299 39.8352 277.566 42.2349 276.16 42.3514C274.727 37.6877 272.834 33.1254 270.475 29.9621C264.731 22.258 263.101 25.6256 262.026 25.4979C258.956 21.0753 256.26 15.3782 250.32 12.3896C247.607 11.025 247.008 11.7512 245.911 12.6354C245.809 12.7168 245.62 12.9219 245.539 12.9945C245.456 13.0672 245.308 13.2658 245.17 13.3696C240.059 8.58464 234.739 1.55647 226.576 2.50931L225.497 6.54489C222.853 5.72293 213.83 -1.61646 206.407 0.325925C202.402 1.37373 204.39 6.04136 205.56 9.63326ZM243.248 182.314C242.122 181.263 241.147 180.425 240.116 178.796C236.866 180.124 231.428 185.76 229.004 188.177C225.657 191.512 222.197 195.072 221.152 199.679C222.646 201.703 226.029 203.777 228.824 201.784C230.083 200.887 231.244 196.277 232.469 194.525C235.67 189.951 239.857 186.875 243.248 182.314ZM279.333 166.09C275.863 163.341 270.168 162.378 265.146 163.084C264.182 164.865 263.122 167.462 262.662 169.524L265.574 170.348C261.989 172.23 262.399 169.985 258.269 175.569C256.749 177.625 256.987 176.813 256.764 178.807C265.579 178.695 277.558 173.621 279.333 166.09ZM244.217 179.818C250.601 182.27 256.065 174.292 258.142 171.119C259.839 168.528 265.075 159.18 262.22 155.203C253.186 154.802 236.882 167.274 241.919 177.612C246.158 173.731 249.768 166.768 256.103 163.06L244.217 179.818ZM275.561 147.142L274.674 154.166L279.891 152.273C276.419 155.665 273.348 155.205 272.891 160.409C278.642 162.738 279.556 161.255 283.518 157.417C286.707 154.329 289.006 151.498 289.542 147.178C286.249 144.54 279.858 145.9 275.561 147.142ZM271.543 137.051C264.889 136.48 258.297 148.831 257.346 152.885C266.007 151.351 262.898 153.984 267.066 147.046C266.207 152.294 265.312 153.107 265.887 160.111C269.598 160.037 270.091 159.883 271.067 156.678C272.904 150.647 273.502 143.626 271.543 137.051ZM291.759 137.566C292.991 135.703 293.542 134.18 294.259 132.008C295.062 129.575 295.499 127.722 294.232 125.781C283.183 125.265 282.313 129.176 283.262 135.892L287.276 133.233C284.599 136.438 282.653 137.515 281.737 142.531C287.518 144.769 289.407 141.119 291.759 137.566ZM275.596 144.134C284.027 141.429 280.105 119.642 275.502 115.462C270.232 118.185 266.355 128.225 266.138 135.471L272.63 132.938L274.233 126.39C274.945 133.68 273.271 127.593 275.596 144.134ZM287.158 108.672C286.806 122.059 290.843 106.678 285.85 124.194L292.849 122.768C294.484 118.121 298.011 112.932 296.46 104.951C292.058 105.577 290.614 106.839 287.158 108.672ZM282.551 123.126C288.018 116.444 282.399 97.174 275.586 93.278C271.325 96.4063 269.813 106.24 270.879 114.755L276.74 111.825L277.345 106.859C278.994 113.747 278.143 112.746 280.892 119.783C281.132 120.397 281.357 121.009 281.636 121.597L282.551 123.126ZM288.105 95.1622C288.206 95.1446 288.545 95.068 288.662 95.0425C289.009 94.969 289.143 94.8917 289.169 94.8254C289.243 94.6411 288.498 94.5405 289.169 94.8254C289.21 94.8422 289.255 94.8605 289.307 94.8805C288.522 96.9825 286.306 103.135 286.011 105.814C292.069 103.043 293.537 103.92 294.728 97.5674C295.514 93.369 295.885 89.1698 294.338 84.1909C290.884 83.5868 288.251 86.9585 286.22 88.5529L288.105 95.1622ZM283.779 99.6327C288.413 92.3986 276.201 74.5884 269.232 72.7832C265.611 77.5634 267.923 87.6751 270.425 94.7488C272.585 93.0474 272.019 91.939 275.079 89.9527L273.676 84.4775L276.309 88.5641C278.615 93.1911 279.636 92.7394 283.779 99.6327ZM284.697 85.8333C288.046 83.681 291.117 82.6077 291.167 77.4644C291.217 72.2773 290.516 68.8266 288.473 64.0433C278.635 66.8467 280.293 79.4076 282.603 81.4282C283.59 79.825 285.371 75.3209 285.381 73.8127C285.681 77.8547 283.596 81.2574 284.697 85.8333ZM278.635 76.0559C279.069 65.1573 264.612 53.7815 257.785 53.9172C255.933 60.1888 260.78 71.7458 264.943 74.9993C266.211 72.7465 266.426 71.3053 267.76 69.0006L265.252 64.0999C267.983 66.1125 269.587 69.1849 271.878 70.951C273.31 72.0554 273.983 72.2821 275.592 73.6251C277.141 74.9187 277.398 75.3074 278.635 76.0559ZM279.325 67.2106C280.662 66.8946 282.021 65.4167 283.143 63.9004C285.857 60.2311 281.893 48.8042 278.422 45.4373C275.009 46.9368 272.098 53.5086 271.491 57.5338C272.331 58.7061 275.128 61.5997 276.441 62.4696L277.623 57.6607C278.147 61.8575 277.263 63.3243 279.325 67.2106ZM270.202 52.2078C272.545 46.162 275.61 47.0917 272.287 38.8178C270.362 34.0232 267.663 29.0723 263.921 28.3238C258.904 38.7419 260.456 39.5583 264.739 43.2444C266.281 44.5723 265.805 45.1612 266.563 42.5022L270.202 52.2078ZM267.166 54.2707C266.904 46.7182 260.709 43.0209 257.39 40.6005C255.004 38.8584 246.578 34.0456 243.008 36.4732C243.644 44.1127 249.895 53.5301 254.177 56.1388C254.876 54.7112 254.714 54.4016 255.211 52.6866L256.225 49.7291L252.416 44.7926C257.812 47.2042 258.668 51.6133 267.166 54.2707ZM252.854 34.7215C250.354 25.2027 235.644 20.2031 225.561 22.1566C227.684 30.3715 236.434 38.8114 240.466 39.3907L240.323 31.958L235.554 28.374C240.819 29.8376 239.723 31.7305 252.854 34.7215ZM258.328 37.13C258.968 30.2917 262.416 30.6971 257.825 23.6577C254.909 19.1864 252.354 15.7796 248.211 14.901C246.773 17.2791 246.366 19.4529 246.599 23.0975C248.988 25.067 249.607 24.5411 251.615 27.5553C252.014 26.5593 252.388 27.7492 251.921 24.6425L256.616 34.7901C257.812 36.9879 256.936 35.8124 258.328 37.13ZM235.671 19.1888C231.106 10.4935 214.084 11.3777 206.493 16.7875C209.362 22.3537 217.541 27.343 224.409 27.825L222.723 20.9955L216.773 19.1481C220.181 18.7291 222.17 19.7139 226.016 19.1912C230.365 18.5998 231.91 19.1321 235.671 19.1888ZM243.794 21.681C244.528 14.8435 242.555 14.1437 238.683 10.5143C236.462 8.43224 232.672 5.48834 228.572 5.53143C227.768 7.92071 227.855 7.78342 228.252 10.4855C231.853 12.8445 233.695 12.2348 236.746 15.9097C239.708 19.4785 238.539 21.4424 243.794 21.681ZM224.65 10.1647C221.875 6.79786 213.487 2.33054 206.512 3.41425L209.144 11.1072L213.181 10.8502C217.301 9.83436 220.37 10.278 224.65 10.1647Z" fill="#3937DC"/>
<path fill-rule="evenodd" clip-rule="evenodd" d="M94.0665 9.63326L92.7211 13.0528C93.2382 13.4734 97.3775 16.0877 95.3881 19.0403C88.6743 25.9552 85.4311 28.5424 75.5229 30.8431C70.8297 31.9332 70.0923 35.0272 66.2794 38.003C64.4846 39.4027 58.256 43.1223 56.9537 45.1341C48.3031 58.4914 55.0687 49.6254 45.7047 59.7635C43.7009 61.9325 43.8613 63.7336 42.6762 66.6823C40.441 72.2453 38.3286 74.1861 35.921 78.1818C33.9714 81.4178 33.9674 88.7947 32.3913 93.3084C29.2726 102.24 30.9716 98.4293 31.567 106.613C31.9732 112.195 30.2638 116.549 32.0306 120.498C39.7156 137.665 32.0338 132.323 40.3883 142.744C46.7031 150.618 40.8863 150.917 49.9526 156.6C63.4799 165.081 60.307 173.959 62.156 176.578C67.1803 181.97 84.3522 195.426 80.4594 202.398C78.0566 203.858 72.6707 207.393 68.7453 203.879C66.4996 201.869 66.4956 196.388 62.1281 193.116C55.0288 185.352 53.1631 183.462 53.1527 183.454C46.7805 181.885 48.7181 181.042 41.9157 181.604C37.6758 181.954 32.7544 180.251 29.1801 178.521C24.6681 176.337 19.5743 172.777 17.6582 167.978C16.2066 164.341 17.5497 165.407 18.4554 163.145C13.85 159.832 8.98769 154.759 7.56242 148.918C6.80749 145.825 7.66057 145.493 8.87676 143.077C6.18822 141.062 0.318764 130.746 2.11591 124.9C2.82296 122.6 3.69519 123.127 3.06635 120.78C2.26194 117.78 -1.717 110.463 0.853434 103.938C1.9994 101.028 2.55563 101.672 2.70007 101.976C2.75354 102.089 2.75035 102.156 2.70007 101.976C2.57957 101.55 2.19012 99.7301 1.65385 93.8335C0.692235 83.2429 4.73583 81.7546 5.67271 79.2512C6.42604 77.2378 4.96406 69.4946 8.79856 63.2357C9.20555 62.5717 9.87908 61.6875 10.5095 61.2286C10.6404 61.1337 10.816 61.0323 10.9556 60.9469L13.1039 60.0108C13.7615 55.4892 14.5403 51.1783 16.4907 47.3558C20.3284 39.8352 22.0609 42.2349 23.467 42.3514C24.9003 37.6877 26.7932 33.1254 29.1521 29.9621C34.8955 22.258 36.5259 25.6256 37.6008 25.4979C40.6708 21.0753 43.3673 15.3782 49.307 12.3896C52.0203 11.025 52.6188 11.7512 53.7161 12.6354C53.8182 12.7168 54.0066 12.9219 54.088 12.9945C54.171 13.0672 54.3186 13.2658 54.4567 13.3696C59.568 8.58464 64.8876 1.55647 73.0506 2.50931L74.1295 6.54489C76.7742 5.72293 85.7966 -1.61646 93.2198 0.325925C97.2251 1.37373 95.2372 6.04136 94.0665 9.63326ZM56.3791 182.314C57.5051 181.263 58.4803 180.425 59.5105 178.796C62.7609 180.124 68.1986 185.76 70.623 188.177C73.9699 191.512 77.4302 195.072 78.4748 199.679C76.9809 201.703 73.598 203.777 70.8034 201.784C69.5441 200.887 68.383 196.277 67.158 194.525C63.9571 189.951 59.7699 186.875 56.3791 182.314ZM20.2941 166.09C23.7639 163.341 29.4594 162.378 34.4805 163.084C35.4446 164.865 36.5051 167.462 36.9648 169.524L34.0528 170.348C37.6383 172.23 37.2281 169.985 41.3579 175.569C42.8781 177.625 42.6403 176.813 42.863 178.807C34.048 178.695 22.0689 173.621 20.2941 166.09ZM55.4095 179.818C49.0261 182.27 43.562 174.292 41.4848 171.119C39.7882 168.528 34.5524 159.18 37.4069 155.203C46.4405 154.802 62.7449 167.274 57.7078 177.612C53.4687 173.731 49.8585 166.768 43.5238 163.06L55.4095 179.818ZM24.0655 147.142L24.9529 154.166L19.7355 152.273C23.2077 155.665 26.2785 155.205 26.7357 160.409C20.9852 162.738 20.0714 161.255 16.1085 157.417C12.9204 154.329 10.6213 151.498 10.085 147.178C13.3784 144.54 19.769 145.9 24.0655 147.142ZM28.0844 137.051C34.7383 136.48 41.33 148.831 42.2804 152.885C33.6203 151.351 36.7286 153.984 32.5613 147.046C33.42 152.294 34.3153 153.107 33.74 160.111C30.0292 160.037 29.536 159.883 28.56 156.678C26.723 150.647 26.1252 143.626 28.0844 137.051ZM7.86807 137.566C6.63592 135.703 6.08448 134.18 5.36786 132.008C4.56504 129.575 4.12774 127.722 5.395 125.781C16.4444 125.265 17.3143 129.176 16.3646 135.892L12.3506 133.233C15.0279 136.438 16.9735 137.515 17.8896 142.531C12.1088 144.769 10.2198 141.119 7.86807 137.566ZM24.0312 144.134C15.6001 141.429 19.5216 119.642 24.1254 115.462C29.3947 118.185 33.2723 128.225 33.4886 135.471L26.9967 132.938L25.3942 126.39C24.6824 133.68 26.3559 127.593 24.0312 144.134ZM12.4687 108.672C12.8214 122.059 8.7842 106.678 13.7766 124.194L6.77796 122.768C5.14281 118.121 1.61555 112.932 3.1669 104.951C7.5688 105.577 9.01323 106.839 12.4687 108.672ZM17.0757 123.126C11.6092 116.444 17.2281 97.174 24.0408 93.278C28.3022 96.4063 29.8137 106.24 28.7483 114.755L22.8869 111.825L22.282 106.859C20.6332 113.747 21.4839 112.746 18.7347 119.783C18.4945 120.397 18.2695 121.009 17.991 121.597L17.0757 123.126ZM11.5222 95.1622C11.4209 95.1446 11.0817 95.068 10.9652 95.0425C10.6181 94.969 10.484 94.8917 10.4577 94.8254C10.3834 94.6411 11.1288 94.5405 10.4577 94.8254C10.417 94.8422 10.3715 94.8605 10.3204 94.8805C11.1048 96.9825 13.321 103.135 13.6162 105.814C7.55764 103.043 6.09008 103.92 4.89943 97.5674C4.11258 93.369 3.74228 89.1698 5.28885 84.1909C8.7427 83.5868 11.3762 86.9585 13.4071 88.5529L11.5222 95.1622ZM15.8483 99.6327C11.2142 92.3986 23.4255 74.5884 30.3947 72.7832C34.0161 77.5634 31.7042 87.6751 29.2024 94.7488C27.0422 93.0474 27.608 91.939 24.5476 89.9527L25.9513 84.4775L23.3178 88.5641C21.0115 93.1911 19.9908 92.7394 15.8483 99.6327ZM14.9298 85.8333C11.5813 83.681 8.50967 82.6077 8.4602 77.4644C8.40992 72.2773 9.11138 68.8266 11.1543 64.0433C20.9916 66.8467 19.3341 79.4076 17.0238 81.4282C16.0366 79.825 14.2554 75.3209 14.2459 73.8127C13.9458 77.8547 16.031 81.2574 14.9298 85.8333ZM20.9916 76.0559C20.5574 65.1573 35.0144 53.7815 41.8415 53.9172C43.6937 60.1888 38.8465 71.7458 34.684 74.9993C33.416 72.7465 33.2013 71.3053 31.867 69.0006L34.3752 64.0999C31.6444 66.1125 30.0395 69.1849 27.7484 70.951C26.3168 72.0554 25.644 72.2821 24.0352 73.6251C22.4854 74.9187 22.2285 75.3074 20.9916 76.0559ZM20.3021 67.2106C18.9654 66.8946 17.6055 65.4167 16.4835 63.9004C13.7702 60.2311 17.734 48.8042 21.2054 45.4373C24.6178 46.9368 27.529 53.5086 28.1355 57.5338C27.2959 58.7061 24.4989 61.5997 23.1861 62.4696L22.0042 57.6607C21.4799 61.8575 22.3642 63.3243 20.3021 67.2106ZM29.4251 52.2078C27.0821 46.162 24.0169 47.0917 27.3398 38.8178C29.2647 34.0232 31.9636 29.0723 35.7055 28.3238C40.7227 38.7419 39.1705 39.5583 34.8883 43.2444C33.3457 44.5723 33.8222 45.1612 33.0641 42.5022L29.4251 52.2078ZM32.4607 54.2707C32.7233 46.7182 38.9183 43.0209 42.2365 40.6005C44.6234 38.8584 53.0489 34.0456 56.6193 36.4732C55.9825 44.1127 49.7324 53.5301 45.4502 56.1388C44.7511 54.7112 44.9131 54.4016 44.4159 52.6866L43.4016 49.7291L47.2106 44.7926C41.8152 47.2042 40.9589 51.6133 32.4607 54.2707ZM46.7725 34.7215C49.2727 25.2027 63.9827 20.2031 74.0657 22.1566C71.9429 30.3715 63.1926 38.8114 59.161 39.3907L59.3039 31.958L64.0728 28.374C58.8083 29.8376 59.904 31.7305 46.7725 34.7215ZM41.2989 37.13C40.6588 30.2917 37.2114 30.6971 41.8024 23.6577C44.7184 19.1864 47.2729 15.7796 51.4162 14.901C52.8542 17.2791 53.2604 19.4529 53.0274 23.0975C50.6389 25.067 50.0197 24.5411 48.0118 27.5553C47.6128 26.5593 47.2385 27.7492 47.7062 24.6425L43.0106 34.7901C41.8152 36.9879 42.6914 35.8124 41.2989 37.13ZM63.9563 19.1888C68.521 10.4935 85.5429 11.3777 93.1337 16.7875C90.2648 22.3537 82.0858 27.343 75.218 27.825L76.9034 20.9955L82.8535 19.1481C79.446 18.7291 77.4565 19.7139 73.6108 19.1912C69.2616 18.5998 67.7166 19.1321 63.9563 19.1888ZM55.8333 21.681C55.0991 14.8435 57.0718 14.1437 60.9438 10.5143C63.1647 8.43224 66.9553 5.48834 71.0547 5.53143C71.8592 7.92071 71.7722 7.78342 71.3748 10.4855C67.7741 12.8445 65.9314 12.2348 62.8814 15.9097C59.9191 19.4785 61.0882 21.4424 55.8333 21.681ZM74.977 10.1647C77.7518 6.79786 86.1398 2.33054 93.1145 3.41425L90.4826 11.1072L86.4454 10.8502C82.326 9.83436 79.2568 10.278 74.977 10.1647Z" fill="#3937DC"/>
</svg>